<?xml version="1.0" standalone="no"?>
<!DOCTYPE svg PUBLIC "-//W3C//DTD SVG 20010904//EN"
 "http://www.w3.org/TR/2001/REC-SVG-20010904/DTD/svg10.dtd">
<svg version="1.0" xmlns="http://www.w3.org/2000/svg"
 width="133.000000pt" height="133.000000pt" viewBox="0 0 133.000000 133.000000"
 preserveAspectRatio="xMidYMid meet">

<g transform="translate(0.000000,133.000000) scale(0.100000,-0.100000)"
fill="#000000" stroke="none">
<path d="M26 1263 c-10 -32 3 -52 39 -59 l33 -6 112 -324 c79 -227 109 -328
102 -337 -19 -24 -84 -216 -79 -232 4 -8 20 -18 36 -21 30 -6 30 -7 16 -35
-39 -74 4 -167 87 -190 108 -29 205 90 155 190 l-15 31 143 0 143 0 -15 -39
c-30 -76 11 -161 88 -181 53 -15 99 1 139 46 24 28 30 44 30 82 0 27 -7 57
-16 70 -14 21 -14 22 6 22 50 0 77 39 48 68 -9 9 -107 12 -380 12 -202 0 -368
3 -368 8 0 4 8 28 17 54 l17 48 348 0 c400 0 371 -7 406 101 11 35 50 158 87
274 36 116 70 223 75 238 8 25 3 53 -13 69 -1 2 -240 5 -531 8 l-529 5 -14 40
c-19 57 -33 66 -101 72 -54 5 -60 3 -66 -14z m494 -253 l0 -51 -121 3 -121 3
-19 48 -19 47 140 0 140 0 0 -50z m300 0 l0 -51 -102 3 -103 3 -3 48 -3 47
105 0 106 0 0 -50z m342 3 l-18 -48 -114 0 -115 0 -3 48 -3 47 135 0 136 0
-18 -47z m-644 -199 l-3 -56 -77 0 c-43 1 -82 1 -87 2 -5 0 -14 19 -20 43 -7
23 -15 48 -17 55 -4 9 19 12 101 12 l106 0 -3 -56z m302 1 l0 -55 -105 0 -105
0 0 55 0 55 105 0 105 0 0 -55z m290 49 c0 -16 -24 -90 -33 -102 -7 -9 -33
-12 -86 -10 l-76 3 -1 50 c-1 28 0 53 3 58 5 9 193 10 193 1z m-592 -251 c-3
-45 -5 -48 -32 -51 -52 -6 -72 5 -84 46 -7 22 -12 42 -12 46 0 3 29 6 66 6
l65 0 -3 -47z m302 2 l0 -45 -105 0 -105 0 0 45 0 45 105 0 105 0 0 -45z m230
41 c0 -2 -9 -25 -20 -51 l-20 -46 -47 3 -48 3 -1 40 c0 22 1 43 3 48 4 7 133
10 133 3z m-614 -414 c6 -4 17 -18 24 -31 10 -20 9 -27 -7 -50 -28 -36 -65
-39 -91 -6 -39 49 22 122 74 87z m514 -12 c11 -11 20 -29 20 -40 0 -25 -34
-60 -58 -60 -30 0 -62 29 -62 57 0 57 61 82 100 43z"/>
</g>
</svg>
